<svg width="24" height="24" viewBox="0 0 24 24" fill="none" xmlns="http://www.w3.org/2000/svg">
<path fill-rule="evenodd" clip-rule="evenodd" d="M13.5084 2.65335C12.715 1.78222 11.3443 1.78222 10.551 2.65335L9.53078 3.77358C9.12983 4.21385 8.55355 4.45255 7.95872 4.42475L6.4452 4.35402C5.26824 4.29901 4.29901 5.26824 4.35402 6.4452L4.42475 7.95872C4.45255 8.55355 4.21385 9.12983 3.77358 9.53078L2.65335 10.551C1.78222 11.3443 1.78222 12.715 2.65335 13.5084L3.77358 14.5286C4.21385 14.9295 4.45255 15.5058 4.42475 16.1006L4.35402 17.6141C4.29901 18.7911 5.26824 19.7603 6.4452 19.7053L7.95872 19.6346C8.55355 19.6068 9.12983 19.8455 9.53078 20.2858L10.551 21.406C11.3443 22.2771 12.715 22.2771 13.5084 21.406L14.5286 20.2858C14.9295 19.8455 15.5058 19.6068 16.1006 19.6346L17.6141 19.7053C18.7911 19.7603 19.7603 18.7911 19.7053 17.6141L19.6346 16.1006C19.6068 15.5058 19.8455 14.9295 20.2858 14.5286L21.406 13.5084C22.2771 12.715 22.2771 11.3443 21.406 10.551L20.2858 9.53078C19.8455 9.12983 19.6068 8.55355 19.6346 7.95872L19.7053 6.4452C19.7603 5.26824 18.7911 4.29901 17.6141 4.35402L16.1006 4.42475C15.5058 4.45255 14.9295 4.21385 14.5286 3.77358L13.5084 2.65335ZM15.3444 10.4142C15.6417 10.041 15.5739 9.50235 15.193 9.21112C14.812 8.91988 14.2621 8.98632 13.9648 9.35951L11.077 12.9845L9.92734 12.1458C9.53977 11.863 8.99159 11.9416 8.70295 12.3213C8.41431 12.7009 8.49451 13.2379 8.88208 13.5207L10.7178 14.8599C11.0992 15.1382 11.6377 15.0671 11.9303 14.6998L15.3444 10.4142Z" fill="#00A656"/>
</svg>
