<svg width="24" height="24" viewBox="0 0 24 24" fill="none" xmlns="http://www.w3.org/2000/svg">
<g clip-path="url(#clip0_3133_10620)">
<path d="M22.4902 11.926C22.4902 11.0874 22.4222 10.4754 22.2749 9.84082H12.699V13.6258H18.3198C18.2066 14.5664 17.5946 15.983 16.2347 16.9349L16.2156 17.0616L19.2433 19.4071L19.4531 19.4281C21.3796 17.6489 22.4902 15.0311 22.4902 11.926Z" fill="#4285F4"/>
<path d="M12.699 21.8983C15.4527 21.8983 17.7645 20.9917 19.4531 19.4279L16.2347 16.9347C15.3734 17.5353 14.2175 17.9546 12.699 17.9546C10.0019 17.9546 7.71272 16.1754 6.89671 13.7163L6.7771 13.7265L3.62882 16.1629L3.58765 16.2774C5.26483 19.6091 8.70991 21.8983 12.699 21.8983Z" fill="#34A853"/>
<path d="M6.89671 13.7164C6.6814 13.0818 6.55679 12.4018 6.55679 11.6993C6.55679 10.9966 6.6814 10.3167 6.88538 9.68207L6.87968 9.54691L3.69194 7.07129L3.58765 7.1209C2.8964 8.50348 2.49976 10.0561 2.49976 11.6993C2.49976 13.3425 2.8964 14.895 3.58765 16.2775L6.89671 13.7164Z" fill="#FBBC05"/>
<path d="M12.699 5.44367C14.6141 5.44367 15.906 6.27094 16.6426 6.96227L19.5211 4.1518C17.7533 2.50859 15.4527 1.5 12.699 1.5C8.70991 1.5 5.26483 3.78914 3.58765 7.12086L6.88538 9.68203C7.71272 7.22289 10.0019 5.44367 12.699 5.44367Z" fill="#EB4335"/>
</g>
<defs>
<clipPath id="clip0_3133_10620">
<rect width="20" height="20.4688" fill="white" transform="translate(2.5 1.5)"/>
</clipPath>
</defs>
</svg>
