<svg width="142" height="36" viewBox="0 0 142 36" fill="none" xmlns="http://www.w3.org/2000/svg">
<circle cx="12" cy="18" r="5" fill="url(#paint0_linear_9218_16182)"/>
<circle cx="12" cy="6" r="5" fill="url(#paint1_linear_9218_16182)"/>
<circle cx="12" cy="30" r="5" fill="url(#paint2_linear_9218_16182)"/>
<circle cx="24" cy="12" r="5" fill="url(#paint3_linear_9218_16182)"/>
<circle cx="24" cy="24" r="5" fill="url(#paint4_linear_9218_16182)"/>
<path d="M41.16 23V17.1C41.16 16.2467 41.3667 15.4733 41.78 14.78C42.1933 14.0867 42.78 13.5333 43.54 13.12C44.3133 12.7067 45.2267 12.5 46.28 12.5C47.3467 12.5 48.2533 12.7067 49 13.12C49.76 13.5333 50.34 14.0867 50.74 14.78C51.14 15.4733 51.34 16.2467 51.34 17.1V23H48.24V17.18C48.24 16.82 48.1533 16.4933 47.98 16.2C47.8067 15.8933 47.5667 15.6533 47.26 15.48C46.9667 15.2933 46.6333 15.2 46.26 15.2C45.8733 15.2 45.5267 15.2933 45.22 15.48C44.9267 15.6533 44.6933 15.8933 44.52 16.2C44.3467 16.4933 44.26 16.82 44.26 17.18V23H41.16ZM59.02 23C57.86 23 56.84 22.7867 55.96 22.36C55.08 21.92 54.3933 21.32 53.9 20.56C53.42 19.7867 53.18 18.8933 53.18 17.88C53.18 16.76 53.4133 15.8 53.88 15C54.3467 14.2 54.9667 13.5867 55.74 13.16C56.5267 12.72 57.3933 12.5 58.34 12.5C59.42 12.5 60.32 12.7267 61.04 13.18C61.7733 13.6333 62.3267 14.2533 62.7 15.04C63.0733 15.8133 63.26 16.7 63.26 17.7C63.26 17.8733 63.2467 18.08 63.22 18.32C63.2067 18.5467 63.1867 18.7267 63.16 18.86H56.44C56.52 19.2067 56.6733 19.5 56.9 19.74C57.1267 19.98 57.4133 20.16 57.76 20.28C58.1067 20.3867 58.4933 20.44 58.92 20.44H62.06V23H59.02ZM56.36 16.92H60.26C60.2333 16.7067 60.1933 16.5 60.14 16.3C60.0867 16.1 60 15.9267 59.88 15.78C59.7733 15.62 59.6467 15.4867 59.5 15.38C59.3533 15.26 59.18 15.1667 58.98 15.1C58.7933 15.0333 58.58 15 58.34 15C58.0333 15 57.76 15.0533 57.52 15.16C57.28 15.2667 57.08 15.4133 56.92 15.6C56.76 15.7733 56.6333 15.98 56.54 16.22C56.46 16.4467 56.4 16.68 56.36 16.92ZM64.9863 23V15.76C64.9863 14.8267 65.2529 14.0933 65.7863 13.56C66.3196 13.0267 67.0596 12.76 68.0063 12.76H70.9863V15.28H68.7663C68.5796 15.28 68.4196 15.3467 68.2863 15.48C68.1529 15.6 68.0863 15.76 68.0863 15.96V23H64.9863ZM72.3709 23V8.4H75.4709V23H72.3709ZM82.8816 23.24C81.8282 23.24 80.9149 23.04 80.1416 22.64C79.3816 22.2267 78.7949 21.6733 78.3816 20.98C77.9682 20.2733 77.7616 19.4933 77.7616 18.64V12.74H80.8616V18.56C80.8616 18.92 80.9482 19.2533 81.1216 19.56C81.2949 19.8533 81.5282 20.0933 81.8216 20.28C82.1282 20.4533 82.4749 20.54 82.8616 20.54C83.2349 20.54 83.5682 20.4533 83.8616 20.28C84.1682 20.0933 84.4082 19.8533 84.5816 19.56C84.7549 19.2533 84.8416 18.92 84.8416 18.56V12.74H87.9416V18.64C87.9416 19.4933 87.7416 20.2733 87.3416 20.98C86.9416 21.6733 86.3616 22.2267 85.6016 22.64C84.8549 23.04 83.9482 23.24 82.8816 23.24ZM95.2816 23.24C94.4282 23.24 93.6549 23.1067 92.9616 22.84C92.2816 22.5733 91.7082 22.1933 91.2416 21.7C90.7749 21.1933 90.4149 20.6 90.1616 19.92C89.9082 19.24 89.7816 18.5 89.7816 17.7C89.7816 16.66 89.9882 15.7533 90.4016 14.98C90.8282 14.2067 91.4082 13.6 92.1416 13.16C92.8882 12.72 93.7416 12.5 94.7016 12.5C95.1149 12.5 95.5016 12.5533 95.8616 12.66C96.2349 12.7667 96.5682 12.9267 96.8616 13.14C97.1682 13.34 97.4216 13.58 97.6216 13.86H97.6816V8.4H100.782V17.68C100.782 18.8 100.555 19.78 100.102 20.62C99.6482 21.46 99.0082 22.1067 98.1816 22.56C97.3682 23.0133 96.4016 23.24 95.2816 23.24ZM95.2816 20.56C95.7616 20.56 96.1749 20.4467 96.5216 20.22C96.8816 19.98 97.1549 19.66 97.3416 19.26C97.5282 18.8467 97.6216 18.3867 97.6216 17.88C97.6216 17.3733 97.5282 16.92 97.3416 16.52C97.1549 16.12 96.8816 15.8067 96.5216 15.58C96.1749 15.34 95.7616 15.22 95.2816 15.22C94.8149 15.22 94.4016 15.34 94.0416 15.58C93.6816 15.8067 93.4082 16.12 93.2216 16.52C93.0349 16.92 92.9416 17.3733 92.9416 17.88C92.9416 18.3867 93.0349 18.8467 93.2216 19.26C93.4082 19.66 93.6816 19.98 94.0416 20.22C94.4016 20.4467 94.8149 20.56 95.2816 20.56ZM108.375 23C107.215 23 106.195 22.7867 105.315 22.36C104.435 21.92 103.749 21.32 103.255 20.56C102.775 19.7867 102.535 18.8933 102.535 17.88C102.535 16.76 102.769 15.8 103.235 15C103.702 14.2 104.322 13.5867 105.095 13.16C105.882 12.72 106.749 12.5 107.695 12.5C108.775 12.5 109.675 12.7267 110.395 13.18C111.129 13.6333 111.682 14.2533 112.055 15.04C112.429 15.8133 112.615 16.7 112.615 17.7C112.615 17.8733 112.602 18.08 112.575 18.32C112.562 18.5467 112.542 18.7267 112.515 18.86H105.795C105.875 19.2067 106.029 19.5 106.255 19.74C106.482 19.98 106.769 20.16 107.115 20.28C107.462 20.3867 107.849 20.44 108.275 20.44H111.415V23H108.375ZM105.715 16.92H109.615C109.589 16.7067 109.549 16.5 109.495 16.3C109.442 16.1 109.355 15.9267 109.235 15.78C109.129 15.62 109.002 15.4867 108.855 15.38C108.709 15.26 108.535 15.1667 108.335 15.1C108.149 15.0333 107.935 15 107.695 15C107.389 15 107.115 15.0533 106.875 15.16C106.635 15.2667 106.435 15.4133 106.275 15.6C106.115 15.7733 105.989 15.98 105.895 16.22C105.815 16.4467 105.755 16.68 105.715 16.92Z" fill="white"/>
<path d="M115.942 23.24C115.408 23.24 114.948 23.0533 114.562 22.68C114.188 22.2933 114.002 21.84 114.002 21.32C114.002 20.7867 114.188 20.3333 114.562 19.96C114.948 19.5733 115.408 19.38 115.942 19.38C116.462 19.38 116.908 19.5733 117.282 19.96C117.668 20.3333 117.862 20.7867 117.862 21.32C117.862 21.6667 117.775 21.9867 117.602 22.28C117.428 22.5733 117.195 22.8067 116.902 22.98C116.622 23.1533 116.302 23.24 115.942 23.24Z" fill="#FF0073"/>
<defs>
<linearGradient id="paint0_linear_9218_16182" x1="-3.90909" y1="37.7059" x2="8.28219" y2="4.47709" gradientUnits="userSpaceOnUse">
<stop offset="0.06" stop-color="#61042E"/>
<stop offset="1" stop-color="#FF0073"/>
</linearGradient>
<linearGradient id="paint1_linear_9218_16182" x1="-3.90909" y1="25.7059" x2="8.28219" y2="-7.52291" gradientUnits="userSpaceOnUse">
<stop offset="0.06" stop-color="#61042E"/>
<stop offset="1" stop-color="#FF0073"/>
</linearGradient>
<linearGradient id="paint2_linear_9218_16182" x1="-3.90909" y1="49.7059" x2="8.28219" y2="16.4771" gradientUnits="userSpaceOnUse">
<stop offset="0.06" stop-color="#61042E"/>
<stop offset="1" stop-color="#FF0073"/>
</linearGradient>
<linearGradient id="paint3_linear_9218_16182" x1="8.09091" y1="31.7059" x2="20.2822" y2="-1.52291" gradientUnits="userSpaceOnUse">
<stop offset="0.06" stop-color="#61042E"/>
<stop offset="1" stop-color="#FF0073"/>
</linearGradient>
<linearGradient id="paint4_linear_9218_16182" x1="8.09091" y1="43.7059" x2="20.2822" y2="10.4771" gradientUnits="userSpaceOnUse">
<stop offset="0.06" stop-color="#61042E"/>
<stop offset="1" stop-color="#FF0073"/>
</linearGradient>
</defs>
</svg>
