<svg width="48" height="24" viewBox="0 0 48 24" fill="none" xmlns="http://www.w3.org/2000/svg">
<path d="M3.47457 6C3.34509 6 3.23511 6.094 3.21486 6.222L1.71607 15.7269C1.71063 15.7616 1.71277 15.7971 1.72234 15.8309C1.73192 15.8648 1.74871 15.8961 1.77155 15.9228C1.7944 15.9495 1.82274 15.971 1.85466 15.9857C1.88658 16.0004 1.92132 16.008 1.95646 16.008H3.7339C3.8632 16.008 3.97336 15.9138 3.99361 15.786L4.43388 12.9948C4.45395 12.867 4.56411 12.7728 4.69359 12.7728H6.3096C8.19776 12.7728 9.80059 11.3951 10.0934 9.52833C10.3885 7.64574 8.91781 6.00409 6.83329 6H3.47457ZM5.20242 8.12187H6.49537C7.55983 8.12187 7.90648 8.74996 7.79688 9.44455C7.68727 10.1406 7.14891 10.6534 6.11919 10.6534H4.80319L5.20242 8.12187ZM13.7084 8.76798C13.2596 8.76965 12.7432 8.8616 12.1634 9.10311C10.8335 9.65744 10.1948 10.8031 9.92356 11.6383C9.92356 11.6383 9.06029 14.1865 11.0107 15.5865C11.0107 15.5865 12.8195 16.9342 14.8557 15.5034L14.8206 15.7269C14.8152 15.7616 14.8173 15.7971 14.8269 15.8309C14.8364 15.8646 14.8532 15.896 14.876 15.9227C14.8988 15.9494 14.9271 15.9708 14.959 15.9856C14.9908 16.0003 15.0255 16.0079 15.0606 16.008H16.748C16.8775 16.008 16.9874 15.9138 17.0077 15.786L18.0341 9.27699C18.0396 9.24227 18.0375 9.20677 18.028 9.17294C18.0184 9.1391 18.0017 9.10774 17.9789 9.08099C17.9561 9.05425 17.9277 9.03276 17.8958 9.01801C17.8639 9.00326 17.8292 8.99559 17.7941 8.99554H16.1067C15.9772 8.99554 15.8671 9.08973 15.847 9.21754L15.7918 9.5679C15.7918 9.5679 15.0551 8.76296 13.7084 8.76798ZM13.7636 10.8239C13.9574 10.8239 14.1346 10.8506 14.2936 10.9017C15.0216 11.1354 15.4344 11.8349 15.315 12.593C15.1676 13.5265 14.4021 14.2138 13.4203 14.2138C13.2267 14.2138 13.0495 14.1873 12.8903 14.1362C12.1625 13.9025 11.7471 13.2031 11.8665 12.4449C12.0138 11.5114 12.7818 10.8239 13.7636 10.8239Z" fill="#A8A8A8"/>
<path d="M27.7733 6C27.6438 6 27.5338 6.094 27.5136 6.222L26.0148 15.7269C26.0093 15.7616 26.0115 15.7971 26.0211 15.8309C26.0306 15.8648 26.0474 15.8961 26.0703 15.9228C26.0931 15.9495 26.1215 15.971 26.1534 15.9857C26.1853 16.0004 26.22 16.008 26.2552 16.008H28.0326C28.1619 16.008 28.2721 15.9138 28.2923 15.786L28.7326 12.9948C28.7527 12.867 28.8628 12.7728 28.9923 12.7728H30.6083C32.4965 12.7728 34.0991 11.3951 34.3917 9.52833C34.6871 7.64574 33.2165 6.00409 31.132 6H27.7733ZM29.5011 8.12187H30.7941C31.8585 8.12187 32.2052 8.74996 32.0956 9.44455C31.986 10.1406 31.4478 10.6534 30.4179 10.6534H29.1019L29.5011 8.12187ZM38.007 8.76798C37.5581 8.76965 37.0417 8.8616 36.4619 9.10311C35.132 9.65744 34.4933 10.8031 34.2221 11.6383C34.2221 11.6383 33.3592 14.1865 35.3096 15.5865C35.3096 15.5865 37.118 16.9342 39.1545 15.5034L39.1193 15.7269C39.1139 15.7616 39.116 15.7971 39.1256 15.8309C39.1352 15.8648 39.152 15.8961 39.1748 15.9228C39.1977 15.9495 39.226 15.971 39.2579 15.9857C39.2899 16.0004 39.3246 16.008 39.3597 16.008H41.0469C41.1764 16.008 41.2863 15.9138 41.3066 15.786L42.3333 9.27699C42.3388 9.24224 42.3368 9.20671 42.3272 9.17285C42.3177 9.13899 42.3009 9.1076 42.278 9.08085C42.2552 9.0541 42.2268 9.03262 42.1949 9.01789C42.1629 9.00317 42.1281 8.99554 42.093 8.99554H40.4056C40.2761 8.99554 40.166 9.08973 40.1459 9.21754L40.0907 9.5679C40.0907 9.5679 39.3536 8.76296 38.007 8.76798ZM38.0621 10.8239C38.2559 10.8239 38.4331 10.8506 38.5921 10.9017C39.3202 11.1354 39.7329 11.8349 39.6135 12.593C39.4662 13.5265 38.7006 14.2138 37.7188 14.2138C37.5252 14.2138 37.348 14.1873 37.1888 14.1362C36.461 13.9025 36.0456 13.2031 36.1651 12.4449C36.3124 11.5114 37.0803 10.8239 38.0621 10.8239Z" fill="#A8A8A8"/>
<path d="M18.8347 8.9953C18.7009 8.9953 18.6058 9.1259 18.6467 9.25315L20.4966 14.9936L18.8239 17.6988C18.7427 17.8302 18.8371 17.9998 18.9914 17.9998H20.9684C21.0249 17.9997 21.0805 17.9851 21.1297 17.9573C21.179 17.9295 21.2202 17.8895 21.2495 17.8411L26.4159 9.29439C26.4952 9.16305 26.4005 8.99512 26.2471 8.99512H24.2703C24.2132 8.99517 24.1571 9.01008 24.1075 9.03838C24.0579 9.06669 24.0166 9.10741 23.9875 9.15655L21.9539 12.59L20.9216 9.182C20.888 9.0711 20.7856 8.99512 20.6699 8.99512L18.8347 8.9953Z" fill="#A8A8A8"/>
<path d="M44.2505 6C44.1212 6 44.0111 6.09419 43.9908 6.222L42.4916 15.7266C42.4861 15.7613 42.4882 15.7968 42.4978 15.8307C42.5073 15.8646 42.5241 15.8959 42.547 15.9227C42.5698 15.9494 42.5982 15.9709 42.6301 15.9857C42.6621 16.0004 42.6968 16.008 42.732 16.008H44.5095C44.6388 16.008 44.7489 15.9138 44.7692 15.786L46.268 6.28107C46.2734 6.24638 46.2713 6.21093 46.2617 6.17714C46.2522 6.14335 46.2354 6.11203 46.2126 6.08533C46.1898 6.05862 46.1615 6.03717 46.1296 6.02244C46.0978 6.00771 46.0631 6.00006 46.028 6H44.2505Z" fill="#A8A8A8"/>
</svg>
