<svg width="48" height="24" viewBox="0 0 48 24" fill="none" xmlns="http://www.w3.org/2000/svg">
<g clip-path="url(#clip0_2345_71350)">
<path fill-rule="evenodd" clip-rule="evenodd" d="M41.0385 12.2319C41.0385 9.83998 39.8799 7.95264 37.6656 7.95264C35.4419 7.95264 34.0964 9.83998 34.0964 12.2132C34.0964 15.0255 35.6848 16.4457 37.9646 16.4457C39.0764 16.4457 39.9173 16.1934 40.5527 15.8384V13.9697C39.9173 14.2874 39.1885 14.4836 38.2635 14.4836C37.3572 14.4836 36.5537 14.1659 36.4509 13.0634H41.0198C41.0198 12.942 41.0385 12.4561 41.0385 12.2319ZM36.4229 11.3443C36.4229 10.2885 37.0676 9.84933 37.6562 9.84933C38.2262 9.84933 38.8335 10.2885 38.8335 11.3443H36.4229Z" fill="#A8A8A8"/>
<path fill-rule="evenodd" clip-rule="evenodd" d="M30.4898 7.95264C29.5742 7.95264 28.9856 8.38243 28.6586 8.68141L28.5371 8.10213H26.4816V18.9964L28.8174 18.5012L28.8267 15.8571C29.1631 16.1 29.6583 16.4457 30.4805 16.4457C32.1529 16.4457 33.6759 15.1003 33.6759 12.1384C33.6666 9.42888 32.1249 7.95264 30.4898 7.95264ZM29.9292 14.3902C29.378 14.3902 29.051 14.194 28.8267 13.951L28.8174 10.4847C29.0603 10.2137 29.3967 10.0268 29.9292 10.0268C30.7795 10.0268 31.3681 10.9799 31.3681 12.2038C31.3681 13.4558 30.7888 14.3902 29.9292 14.3902Z" fill="#A8A8A8"/>
<path fill-rule="evenodd" clip-rule="evenodd" d="M23.2675 7.40123L25.6126 6.89669V5L23.2675 5.49519V7.40123Z" fill="#A8A8A8"/>
<path d="M25.6126 8.11133H23.2675V16.2867H25.6126V8.11133Z" fill="#A8A8A8"/>
<path fill-rule="evenodd" clip-rule="evenodd" d="M20.7542 8.80263L20.6047 8.11123H18.5865V16.2866H20.9224V10.746C21.4736 10.0266 22.408 10.1574 22.6976 10.2602V8.11123C22.3986 7.99911 21.3054 7.79355 20.7542 8.80263Z" fill="#A8A8A8"/>
<path fill-rule="evenodd" clip-rule="evenodd" d="M16.0826 6.08398L13.8028 6.56984L13.7935 14.0538C13.7935 15.4366 14.8306 16.455 16.2134 16.455C16.9795 16.455 17.5401 16.3149 17.8484 16.1467V14.25C17.5495 14.3715 16.0732 14.8013 16.0732 13.4185V10.1016H17.8484V8.11148H16.0732L16.0826 6.08398Z" fill="#A8A8A8"/>
<path fill-rule="evenodd" clip-rule="evenodd" d="M9.76644 10.4847C9.76644 10.1203 10.0654 9.98013 10.5606 9.98013C11.2707 9.98013 12.1677 10.195 12.8778 10.5781V8.38243C12.1023 8.0741 11.3361 7.95264 10.5606 7.95264C8.66393 7.95264 7.40259 8.94303 7.40259 10.5968C7.40259 13.1755 10.953 12.7644 10.953 13.8763C10.953 14.3061 10.5793 14.4462 10.0561 14.4462C9.28059 14.4462 8.2902 14.1286 7.50536 13.6988V15.9225C8.37429 16.2962 9.25256 16.455 10.0561 16.455C11.9995 16.455 13.3356 15.4927 13.3356 13.8202C13.3262 11.0359 9.76644 11.5311 9.76644 10.4847Z" fill="#A8A8A8"/>
</g>
<defs>
<clipPath id="clip0_2345_71350">
<rect width="33.6377" height="14" fill="white" transform="translate(7.40271 5)"/>
</clipPath>
</defs>
</svg>
